<?xml version="1.0" standalone="no"?>
<!DOCTYPE svg PUBLIC "-//W3C//DTD SVG 20010904//EN"
 "http://www.w3.org/TR/2001/REC-SVG-20010904/DTD/svg10.dtd">
<svg version="1.0" xmlns="http://www.w3.org/2000/svg"
 width="88.000000pt" height="88.000000pt" viewBox="0 0 88.000000 88.000000"
 preserveAspectRatio="xMidYMid meet">
<metadata>
Created by potrace 1.14, written by Peter Selinger 2001-2017
</metadata>
<g transform="translate(0.000000,88.000000) scale(0.100000,-0.100000)"
fill="#000000" stroke="none">
<path d="M400 859 c-19 -12 -69 -41 -110 -64 -41 -23 -97 -54 -125 -70 -27
-16 -63 -36 -80 -45 l-30 -17 -3 -219 -2 -219 192 -112 193 -112 50 28 c27 16
115 67 195 114 l145 85 0 217 0 217 -193 109 c-107 60 -195 109 -195 109 -1 0
-18 -10 -37 -21z"/>
</g>
</svg>
