<svg width="42" height="52" viewBox="0 0 42 52" fill="none" xmlns="http://www.w3.org/2000/svg">
<path d="M7.5647 50.4766H4.24219C3.26221 50.4766 2.46484 49.6792 2.46484 48.6992V3.30078C2.46484 2.3208 3.26221 1.52344 4.24219 1.52344H17.4394C17.8601 1.52344 18.2011 1.18239 18.2011 0.761719C18.2011 0.341047 17.8601 0 17.4394 0H4.24219C2.42219 0 0.941406 1.48078 0.941406 3.30078V48.6992C0.941406 50.5192 2.42219 52 4.24219 52H7.5647C7.98537 52 8.32642 51.659 8.32642 51.2383C8.32642 50.8176 7.98537 50.4766 7.5647 50.4766Z" fill="#868686"/>
<path d="M40.8352 10.7349L30.3235 0.223133C30.2242 0.123703 30.0854 0.0448906 29.9335 0.0147266C29.9275 0.00873437 29.7946 0 29.7849 0H20.9939C20.5732 0 20.2321 0.341047 20.2321 0.761719C20.2321 1.18239 20.5732 1.52344 20.9939 1.52344H29.0232V8.73438C29.0232 10.5544 30.504 12.0352 32.324 12.0352H39.5349V48.6992C39.5349 49.6792 38.7375 50.4766 37.7576 50.4766H11.1191C10.6985 50.4766 10.3574 50.8176 10.3574 51.2383C10.3574 51.659 10.6985 52 11.1191 52H37.7576C39.5776 52 41.0583 50.5192 41.0583 48.6992V11.2734C41.0583 11.0813 40.9809 10.8805 40.8352 10.7349ZM32.324 10.5117C31.344 10.5117 30.5466 9.71435 30.5466 8.73438V2.60061L38.4577 10.5117H32.324Z" fill="#868686"/>
<path d="M34.2031 16.7357H7.79688C7.3762 16.7357 7.03516 17.0767 7.03516 17.4974C7.03516 17.9181 7.3762 18.2591 7.79688 18.2591H34.2031C34.6238 18.2591 34.9648 17.9181 34.9648 17.4974C34.9648 17.0767 34.6238 16.7357 34.2031 16.7357Z" fill="#868686"/>
<path d="M34.2031 23.506H7.79688C7.3762 23.506 7.03516 23.8471 7.03516 24.2678C7.03516 24.6884 7.3762 25.0295 7.79688 25.0295H34.2031C34.6238 25.0295 34.9648 24.6884 34.9648 24.2678C34.9648 23.8471 34.6238 23.506 34.2031 23.506Z" fill="#868686"/>
<path d="M34.2031 30.2772H7.79688C7.3762 30.2772 7.03516 30.6183 7.03516 31.0389C7.03516 31.4596 7.3762 31.8007 7.79688 31.8007H34.2031C34.6238 31.8007 34.9648 31.4596 34.9648 31.0389C34.9648 30.6183 34.6238 30.2772 34.2031 30.2772Z" fill="#868686"/>
<path d="M34.2031 37.0482H7.79688C7.3762 37.0482 7.03516 37.3892 7.03516 37.8099C7.03516 38.2306 7.3762 38.5716 7.79688 38.5716H34.2031C34.6238 38.5716 34.9648 38.2306 34.9648 37.8099C34.9648 37.3892 34.6238 37.0482 34.2031 37.0482Z" fill="#868686"/>
</svg>
