<svg width="88" height="88" viewBox="0 0 88 88" fill="none" xmlns="http://www.w3.org/2000/svg">
<path d="M44 0C32.6922 0 21.9392 4.29791 13.7216 12.1021C12.5161 13.2469 14.2916 15.1164 15.4969 13.9715C23.2334 6.62441 33.356 2.57812 44 2.57812C66.8401 2.57812 85.4219 21.1599 85.4219 44C85.4219 66.8401 66.8401 85.4219 44 85.4219C21.1599 85.4219 2.57812 66.8401 2.57812 44C2.57812 34.8944 5.48866 26.2491 10.9948 18.9984C12.0003 17.6744 9.94744 16.1153 8.9418 17.4391C3.09203 25.142 0 34.3267 0 44C0 68.2617 19.7383 88 44 88C68.2617 88 88 68.2617 88 44C88 19.7383 68.2617 0 44 0Z" fill="white"/>
<path d="M47.1468 77.6771C45.4915 77.8304 45.7292 80.4022 47.3849 80.2442C56.3672 79.412 64.6923 75.2695 70.8267 68.5794C76.9367 61.9164 80.4003 53.0416 80.4003 44.0004C80.4003 23.9296 64.0714 7.60059 44.0003 7.60059C23.9293 7.60059 7.6001 23.9294 7.6001 44.0003C7.6001 53.1488 11.0202 61.8999 17.2308 68.6415C23.404 75.3425 31.7721 79.4689 40.7938 80.2602C42.4503 80.4055 42.6748 77.8371 41.0191 77.6919C32.8379 76.9745 25.2348 73.3015 19.5404 67.3333L31.6186 55.4054L38.7968 62.2919C39.2963 62.7711 40.1108 62.763 40.6008 62.2733L46.0193 56.8546L49.4353 60.3678C49.931 60.8777 50.7466 60.8896 51.2574 60.3941L56.1807 55.6156L68.1104 67.6934C62.4978 73.4065 55.0996 76.9401 47.1468 77.6771ZM69.8494 65.7854L58.0174 53.8063L63.9373 47.8864L74.5482 58.5065C73.3108 61.1039 71.7365 63.5505 69.8494 65.7854ZM44.0001 10.1785C62.6496 10.1785 77.822 25.3508 77.822 44.0003C77.822 48.1266 77.0703 52.1669 75.638 55.9495L64.8494 45.1517C64.3517 44.6532 63.5239 44.6534 63.026 45.1511L56.2055 51.9717L45.2476 40.8775V36.2752H56.0034C56.9774 36.2752 57.609 35.1805 57.1169 34.3366L54.9025 30.5409L57.1169 26.7444C57.609 25.9006 56.9776 24.806 56.0034 24.806H45.2476V23.5471C45.2476 21.8846 42.6695 21.8846 42.6695 23.5471V40.8684L28.0941 55.2624L21.5716 48.7397C21.0684 48.2365 20.2522 48.2365 19.7487 48.7397L12.4102 56.0781C10.9465 52.2592 10.1782 48.1744 10.1782 44.0003C10.1782 25.3508 25.3507 10.1785 44.0001 10.1785ZM52.2967 31.1906L53.759 33.6972H45.2476V27.3843H53.759L52.2965 29.8917C52.0624 30.2929 52.0624 30.7893 52.2967 31.1906ZM13.509 58.6255L20.6602 51.4744L26.2597 57.0741L17.8299 65.3991C16.1131 63.3039 14.6662 61.03 13.509 58.6255ZM50.3858 57.647L46.9564 54.1199C46.7159 53.8726 46.3863 53.732 46.0413 53.7296C46.0382 53.7296 46.0353 53.7296 46.0322 53.7296C45.6905 53.7296 45.3626 53.8654 45.1206 54.107L39.6704 59.5574L33.4535 53.5931L43.9472 43.2301L54.3688 53.7812L50.3858 57.647Z" fill="white"/>
<path d="M16.0064 41.7568C16.6902 41.8407 17.3589 41.3199 17.4431 40.6346C18.0921 35.3565 20.3219 30.456 23.8912 26.4628C27.4347 22.4985 32.0272 19.7231 37.1723 18.4371C38.7855 18.0337 38.1601 15.5324 36.547 15.9358C30.8991 17.3478 25.8581 20.3939 21.9689 24.7448C18.0476 29.1317 15.5977 34.5176 14.8843 40.3201C14.7975 41.0267 15.2999 41.6698 16.0064 41.7568Z" fill="white"/>
</svg>
